<svg preserveAspectRatio="none" width="100%" height="100%" overflow="visible" style="display: block;" viewBox="0 0 48 48" fill="none" xmlns="http://www.w3.org/2000/svg">
<g id="Icon">
<path id="Vector" d="M24 14V42" stroke="var(--stroke-0, #2D388B)" stroke-width="4" stroke-linecap="round" stroke-linejoin="round"/>
<path id="Vector_2" d="M6 36C5.46957 36 4.96086 35.7893 4.58579 35.4142C4.21071 35.0391 4 34.5304 4 34V8C4 7.46957 4.21071 6.96086 4.58579 6.58579C4.96086 6.21071 5.46957 6 6 6H16C18.1217 6 20.1566 6.84285 21.6569 8.34315C23.1571 9.84344 24 11.8783 24 14C24 11.8783 24.8429 9.84344 26.3431 8.34315C27.8434 6.84285 29.8783 6 32 6H42C42.5304 6 43.0391 6.21071 43.4142 6.58579C43.7893 6.96086 44 7.46957 44 8V34C44 34.5304 43.7893 35.0391 43.4142 35.4142C43.0391 35.7893 42.5304 36 42 36H30C28.4087 36 26.8826 36.6321 25.7574 37.7574C24.6321 38.8826 24 40.4087 24 42C24 40.4087 23.3679 38.8826 22.2426 37.7574C21.1174 36.6321 19.5913 36 18 36H6Z" stroke="var(--stroke-0, #2D388B)" stroke-width="4" stroke-linecap="round" stroke-linejoin="round"/>
</g>
</svg>
