<svg preserveAspectRatio="none" width="100%" height="100%" overflow="visible" style="display: block;" viewBox="0 0 48 48" fill="none" xmlns="http://www.w3.org/2000/svg">
<g id="Icon">
<path id="Vector" d="M40 26C40 36 33 41 24.68 43.9C24.2443 44.0476 23.7711 44.0406 23.34 43.88C15 41 8 36 8 26V12C8 11.4696 8.21071 10.9609 8.58579 10.5858C8.96086 10.2107 9.46957 10 10 10C14 10 19 7.6 22.48 4.56C22.9037 4.198 23.4427 3.9991 24 3.9991C24.5573 3.9991 25.0963 4.198 25.52 4.56C29.02 7.62 34 10 38 10C38.5304 10 39.0391 10.2107 39.4142 10.5858C39.7893 10.9609 40 11.4696 40 12V26Z" stroke="var(--stroke-0, #2D388B)" stroke-width="4" stroke-linecap="round" stroke-linejoin="round"/>
<path id="Vector_2" d="M18 24L22 28L30 20" stroke="var(--stroke-0, #2D388B)" stroke-width="4" stroke-linecap="round" stroke-linejoin="round"/>
</g>
</svg>
