<svg preserveAspectRatio="none" width="100%" height="100%" overflow="visible" style="display: block;" viewBox="0 0 24 24" fill="none" xmlns="http://www.w3.org/2000/svg">
<g id="Group 8">
<rect id="Rectangle 62" width="24" height="24" rx="4" fill="var(--fill-0, #2D388B)"/>
<path id="Vector" d="M12 12C11.0375 12 10.2135 11.6573 9.52812 10.9719C8.84271 10.2865 8.5 9.4625 8.5 8.5C8.5 7.5375 8.84271 6.71354 9.52812 6.02813C10.2135 5.34271 11.0375 5 12 5C12.9625 5 13.7865 5.34271 14.4719 6.02813C15.1573 6.71354 15.5 7.5375 15.5 8.5C15.5 9.4625 15.1573 10.2865 14.4719 10.9719C13.7865 11.6573 12.9625 12 12 12ZM5 17.25V16.55C5 16.0542 5.12775 15.5986 5.38325 15.1832C5.63875 14.7679 5.97767 14.4506 6.4 14.2312C7.30417 13.7792 8.22292 13.4402 9.15625 13.2145C10.0896 12.9887 11.0375 12.8756 12 12.875C12.9625 12.8744 13.9104 12.9876 14.8437 13.2145C15.7771 13.4414 16.6958 13.7803 17.6 14.2312C18.0229 14.45 18.3621 14.7673 18.6176 15.1832C18.8731 15.5992 19.0006 16.0547 19 16.55V17.25C19 17.7312 18.8288 18.1434 18.4864 18.4864C18.144 18.8294 17.7318 19.0006 17.25 19H6.75C6.26875 19 5.85692 18.8288 5.5145 18.4864C5.17208 18.144 5.00058 17.7318 5 17.25Z" fill="var(--fill-0, white)"/>
</g>
</svg>
